<svg version="1.1" id="Layer_1" xmlns="http://www.w3.org/2000/svg" xmlns:xlink="http://www.w3.org/1999/xlink" x="0px" y="0px"
	 width="100%" viewBox="0 0 266 266" enable-background="new 0 0 266 266" xml:space="preserve">
<path fill="#346AB0" opacity="1.000000" stroke="none" 
	d="
M181.000000,267.000000 
	C120.694786,267.000000 60.889568,267.000000 1.042176,267.000000 
	C1.042176,178.403137 1.042176,89.806244 1.042176,1.104675 
	C89.555107,1.104675 178.110382,1.104675 266.832825,1.104675 
	C266.832825,89.666405 266.832825,178.333176 266.832825,267.000000 
	C238.473068,267.000000 209.986526,267.000000 181.000000,267.000000 
M258.243530,210.614456 
	C263.936523,201.141022 262.365540,190.636978 260.780792,180.892105 
	C257.075989,158.110672 252.548630,135.418091 247.210403,112.961479 
	C242.973648,95.138542 231.656799,82.564072 213.712753,77.283821 
	C189.397797,70.128853 156.919205,84.821693 149.639420,113.741089 
	C145.936600,128.450714 142.901611,143.139236 140.922119,158.149750 
	C138.802765,174.220917 137.553711,190.296539 138.899811,206.454285 
	C139.697983,216.034988 147.874817,222.352020 157.302597,221.429062 
	C166.371216,220.541245 172.229614,213.654831 172.513885,203.506638 
	C172.732773,195.692123 172.958511,187.877396 173.096741,180.061264 
	C173.155197,176.755127 174.815613,175.404556 177.987244,175.145233 
	C191.899277,174.007812 205.806137,172.803436 219.707626,171.543488 
	C222.927078,171.251694 224.271469,172.844345 224.621216,175.731277 
	C225.618744,183.964966 226.796967,192.183044 227.531738,200.440414 
	C228.216736,208.138336 231.493820,213.982315 238.896744,216.522156 
	C246.175995,219.019562 252.690994,217.207077 258.243530,210.614456 
M80.034866,114.548004 
	C83.921783,110.219193 87.678146,105.763817 91.724854,101.589928 
	C98.564087,94.535751 105.732483,87.797729 112.494865,80.672791 
	C120.438454,72.303307 120.314598,60.727943 112.776939,53.906406 
	C106.378349,48.115707 92.479233,47.514282 86.077530,57.752506 
	C85.296555,59.001507 84.121811,60.010376 83.096977,61.099884 
	C73.203697,71.617523 63.310257,82.135056 53.384666,92.622139 
	C52.897102,93.137276 52.111130,93.369987 50.534691,94.257385 
	C50.534691,91.462341 50.542561,89.528961 50.533272,87.595665 
	C50.499672,80.600166 50.742809,73.588898 50.353065,66.613113 
	C49.842632,57.477131 42.967316,51.045006 34.136024,50.849007 
	C24.904764,50.644131 17.864897,56.738243 16.837818,65.998589 
	C16.508501,68.967781 16.463375,71.982071 16.483833,74.974396 
	C16.711491,108.272881 16.737570,141.549759 12.709794,174.702911 
	C11.731686,182.753860 11.516418,190.990601 11.926659,199.092468 
	C12.390907,208.260956 19.608322,214.469406 28.441763,214.505295 
	C37.373840,214.541595 44.372551,208.438187 45.286465,199.358185 
	C46.235165,189.932510 46.762550,180.465179 47.560425,171.023346 
	C48.066059,165.039825 48.729301,159.069611 49.404491,152.260056 
	C51.175060,153.612579 51.966743,154.177689 52.715324,154.795059 
	C66.435242,166.110199 80.075241,177.524033 93.901337,188.707825 
	C99.713371,193.409119 106.223846,196.349411 114.135498,195.578018 
	C122.448997,194.767426 128.887039,189.495026 130.163437,181.664612 
	C131.527832,173.294312 127.427376,166.241501 119.613808,162.757004 
	C115.853363,161.080002 112.147583,159.073868 108.838326,156.643204 
	C104.561539,153.501892 100.720253,149.770279 96.666176,146.322571 
	C89.319679,140.074890 82.029121,133.757889 74.563797,127.655029 
	C71.126732,124.845238 71.821503,122.568787 74.673096,120.016884 
	C76.399963,118.471489 77.985382,116.768051 80.034866,114.548004 
z"/>
<path fill="#A0E2E1" opacity="1.000000" stroke="none" 
	d="
M258.024384,210.909866 
	C252.690994,217.207077 246.175995,219.019562 238.896744,216.522156 
	C231.493820,213.982315 228.216736,208.138336 227.531738,200.440414 
	C226.796967,192.183044 225.618744,183.964966 224.621216,175.731277 
	C224.271469,172.844345 222.927078,171.251694 219.707626,171.543488 
	C205.806137,172.803436 191.899277,174.007812 177.987244,175.145233 
	C174.815613,175.404556 173.155197,176.755127 173.096741,180.061264 
	C172.958511,187.877396 172.732773,195.692123 172.513885,203.506638 
	C172.229614,213.654831 166.371216,220.541245 157.302597,221.429062 
	C147.874817,222.352020 139.697983,216.034988 138.899811,206.454285 
	C137.553711,190.296539 138.802765,174.220917 140.922119,158.149750 
	C142.901611,143.139236 145.936600,128.450714 149.639420,113.741089 
	C156.919205,84.821693 189.397797,70.128853 213.712753,77.283821 
	C231.656799,82.564072 242.973648,95.138542 247.210403,112.961479 
	C252.548630,135.418091 257.075989,158.110672 260.780792,180.892105 
	C262.365540,190.636978 263.936523,201.141022 258.024384,210.909866 
M202.116318,110.168648 
	C195.799545,110.563370 189.195831,111.480721 186.204346,117.655365 
	C182.866852,124.544174 180.926300,132.109772 177.810654,140.998642 
	C191.824997,139.640747 204.227280,138.439041 216.655518,137.234833 
	C214.583939,120.294464 212.938934,114.940285 202.116318,110.168648 
z"/>
<path fill="#A0E2E1" opacity="1.000000" stroke="none" 
	d="
M79.834610,114.841812 
	C77.985382,116.768051 76.399963,118.471489 74.673096,120.016884 
	C71.821503,122.568787 71.126732,124.845238 74.563797,127.655029 
	C82.029121,133.757889 89.319679,140.074890 96.666176,146.322571 
	C100.720253,149.770279 104.561539,153.501892 108.838326,156.643204 
	C112.147583,159.073868 115.853363,161.080002 119.613808,162.757004 
	C127.427376,166.241501 131.527832,173.294312 130.163437,181.664612 
	C128.887039,189.495026 122.448997,194.767426 114.135498,195.578018 
	C106.223846,196.349411 99.713371,193.409119 93.901337,188.707825 
	C80.075241,177.524033 66.435242,166.110199 52.715324,154.795059 
	C51.966743,154.177689 51.175060,153.612579 49.404491,152.260056 
	C48.729301,159.069611 48.066059,165.039825 47.560425,171.023346 
	C46.762550,180.465179 46.235165,189.932510 45.286465,199.358185 
	C44.372551,208.438187 37.373840,214.541595 28.441763,214.505295 
	C19.608322,214.469406 12.390907,208.260956 11.926659,199.092468 
	C11.516418,190.990601 11.731686,182.753860 12.709794,174.702911 
	C16.737570,141.549759 16.711491,108.272881 16.483833,74.974396 
	C16.463375,71.982071 16.508501,68.967781 16.837818,65.998589 
	C17.864897,56.738243 24.904764,50.644131 34.136024,50.849007 
	C42.967316,51.045006 49.842632,57.477131 50.353065,66.613113 
	C50.742809,73.588898 50.499672,80.600166 50.533272,87.595665 
	C50.542561,89.528961 50.534691,91.462341 50.534691,94.257385 
	C52.111130,93.369987 52.897102,93.137276 53.384666,92.622139 
	C63.310257,82.135056 73.203697,71.617523 83.096977,61.099884 
	C84.121811,60.010376 85.296555,59.001507 86.077530,57.752506 
	C92.479233,47.514282 106.378349,48.115707 112.776939,53.906406 
	C120.314598,60.727943 120.438454,72.303307 112.494865,80.672791 
	C105.732483,87.797729 98.564087,94.535751 91.724854,101.589928 
	C87.678146,105.763817 83.921783,110.219193 79.834610,114.841812 
z"/>
<path fill="#356BB1" opacity="1.000000" stroke="none" 
	d="
M202.494629,110.249161 
	C212.938934,114.940285 214.583939,120.294464 216.655518,137.234833 
	C204.227280,138.439041 191.824997,139.640747 177.810654,140.998642 
	C180.926300,132.109772 182.866852,124.544174 186.204346,117.655365 
	C189.195831,111.480721 195.799545,110.563370 202.494629,110.249161 
z"/>
</svg>